<svg id="SvgjsSvg1001" width="288" height="288" xmlns="http://www.w3.org/2000/svg" version="1.1" xmlns:xlink="http://www.w3.org/1999/xlink" xmlns:svgjs="http://svgjs.com/svgjs"><defs id="SvgjsDefs1002"></defs><g id="SvgjsG1008"><svg xmlns="http://www.w3.org/2000/svg" viewBox="0 0 445.63 86" width="288" height="288"><path fill="#f57445" d="M242.01 43c-.94 0-1.88-.38-2.57-1.13l-16.52-18c-1.23-1.34-1.23-3.4 0-4.74L239.45 1.13c1.3-1.42 3.51-1.51 4.93-.2 1.42 1.31 1.51 3.52.2 4.94l-14.35 15.63 14.35 15.63c1.31 1.42 1.21 3.63-.2 4.95-.67.62-1.52.93-2.36.93zM425.61 43c.94 0 1.88-.38 2.57-1.13l16.52-18c1.23-1.34 1.23-3.4 0-4.74L428.18 1.13c-1.3-1.42-3.51-1.51-4.93-.2-1.42 1.31-1.51 3.52-.2 4.94l14.35 15.63-14.35 15.63c-1.31 1.42-1.21 3.63.2 4.95.67.62 1.52.93 2.36.93z" class="colore30513 svgShape"></path><path fill="#000000" d="M31.5 43H3.5C1.57 43 0 41.43 0 39.5s1.57-3.5 3.5-3.5H31.5c2.48 0 4.5-2.02 4.5-4.5v-2c0-2.48-2.02-4.5-4.5-4.5H11.5C5.16 25 0 19.84 0 13.5v-2C0 5.16 5.16 0 11.5 0h28C41.43 0 43 1.57 43 3.5s-1.57 3.5-3.5 3.5H11.5c-2.48 0-4.5 2.02-4.5 4.5v2c0 2.48 2.02 4.5 4.5 4.5H31.5c6.34 0 11.5 5.16 11.5 11.5v2c0 6.34-5.16 11.5-11.5 11.5zM195.38 43h-20c-10.75 0-19.5-8.75-19.5-19.5v-4C155.88 8.75 164.62 0 175.38 0h20c1.93 0 3.5 1.57 3.5 3.5s-1.57 3.5-3.5 3.5h-20c-6.89 0-12.5 5.61-12.5 12.5v4c0 6.89 5.61 12.5 12.5 12.5h20c1.93 0 3.5 1.57 3.5 3.5s-1.57 3.5-3.5 3.5zM93.25 0H57.25C55.32 0 53.75 1.57 53.75 3.5s1.57 3.5 3.5 3.5h14.5V39.5c0 1.93 1.57 3.5 3.5 3.5s3.5-1.57 3.5-3.5V7h14.5c1.93 0 3.5-1.57 3.5-3.5S95.18 0 93.25 0zM295.75 0h-36c-1.93 0-3.5 1.57-3.5 3.5s1.57 3.5 3.5 3.5h14.5V39.5c0 1.93 1.57 3.5 3.5 3.5s3.5-1.57 3.5-3.5V7h14.5c1.93 0 3.5-1.57 3.5-3.5S297.68 0 295.75 0zM308.13 43c-.31 0-.63-.04-.94-.13-1.86-.52-2.95-2.45-2.43-4.31l10-36c.52-1.86 2.45-2.95 4.31-2.43 1.86.52 2.95 2.45 2.43 4.31l-10 36c-.43 1.55-1.84 2.56-3.37 2.56zM213.13 43c-1.93 0-3.5-1.57-3.5-3.5V3.5C209.63 1.57 211.19 0 213.13 0s3.5 1.57 3.5 3.5V39.5c0 1.93-1.57 3.5-3.5 3.5zM389.88 0c-7.53 0-14.16 3.9-18 9.78C368.04 3.9 361.41 0 353.88 0 342.02 0 332.38 9.64 332.38 21.5v18c0 1.93 1.57 3.5 3.5 3.5s3.5-1.57 3.5-3.5V21.5c0-8 6.5-14.5 14.5-14.5s14.5 6.5 14.5 14.5v18c0 1.93 1.57 3.5 3.5 3.5s3.5-1.57 3.5-3.5V21.5c0-8 6.5-14.5 14.5-14.5s14.5 6.5 14.5 14.5v18c0 1.93 1.57 3.5 3.5 3.5s3.5-1.57 3.5-3.5V21.5C411.38 9.64 401.73 0 389.88 0zM141.63 43c-1.93 0-3.5-1.57-3.5-3.5V21.5c0-8-6.5-14.5-14.5-14.5s-14.5 6.5-14.5 14.5v18c0 1.93-1.57 3.5-3.5 3.5s-3.5-1.57-3.5-3.5V21.5C102.13 9.64 111.77 0 123.63 0s21.5 9.64 21.5 21.5v18c0 1.93-1.57 3.5-3.5 3.5z" class="colorfff svgShape"></path><path fill="#000000" d="M127.42 25.28c0-2-1.62-3.62-3.62-3.62s-3.62 1.62-3.62 3.62 1.62 3.62 3.62 3.62 3.62-1.62 3.62-3.62zM231.81 86h-14c-3.17 0-5.75-2.58-5.75-5.75v-10c0-3.17 2.58-5.75 5.75-5.75h14c.97 0 1.75.78 1.75 1.75s-.78 1.75-1.75 1.75h-14c-1.24 0-2.25 1.01-2.25 2.25v10c0 1.24 1.01 2.25 2.25 2.25h14c.97 0 1.75.78 1.75 1.75s-.78 1.75-1.75 1.75zM81.27 86c-5.92 0-10.75-4.82-10.75-10.75s4.82-10.75 10.75-10.75 10.75 4.82 10.75 10.75-4.82 10.75-10.75 10.75zm0-18c-4 0-7.25 3.25-7.25 7.25s3.25 7.25 7.25 7.25 7.25-3.25 7.25-7.25-3.25-7.25-7.25-7.25zM355.35 86c-.97 0-1.75-.78-1.75-1.75v-5c0-3.17 2.58-5.75 5.75-5.75h10c1.24 0 2.25-1 2.25-2.25v-1c0-1.24-1.01-2.25-2.25-2.25h-14c-.97 0-1.75-.78-1.75-1.75s.78-1.75 1.75-1.75h14c3.17 0 5.75 2.58 5.75 5.75v1c0 3.17-2.58 5.75-5.75 5.75h-10c-1.24 0-2.25 1.01-2.25 2.25v5c0 .97-.78 1.75-1.75 1.75zM19.75 86H5.75c-3.17 0-5.75-2.58-5.75-5.75v-10c0-3.17 2.58-5.75 5.75-5.75h14c.97 0 1.75.78 1.75 1.75s-.78 1.75-1.75 1.75H5.75c-1.24 0-2.25 1.01-2.25 2.25v10c0 1.24 1.01 2.25 2.25 2.25h14c.97 0 1.75.78 1.75 1.75s-.78 1.75-1.75 1.75zM443.88 64.5h-18c-.97 0-1.75.78-1.75 1.75s.78 1.75 1.75 1.75h7.25v16.25c0 .97.78 1.75 1.75 1.75s1.75-.78 1.75-1.75v-16.25h7.25c.97 0 1.75-.78 1.75-1.75s-.78-1.75-1.75-1.75zM160.95 86c-.96 0-1.75-.78-1.75-1.75v-9c0-4-3.25-7.25-7.25-7.25s-7.25 3.25-7.25 7.25v9c0 .97-.78 1.75-1.75 1.75s-1.75-.78-1.75-1.75v-9c0-5.93 4.82-10.75 10.75-10.75s10.75 4.82 10.75 10.75v9c0 .97-.78 1.75-1.75 1.75z" class="colorfff svgShape"></path><g fill="#000000" class="color000 svgShape"><path fill="#000000" d="M302.5 77h-18c-.97 0-1.75-.79-1.75-1.75s.78-1.75 1.75-1.75h18c.97 0 1.75.78 1.75 1.75s-.78 1.75-1.75 1.75zM302.5 68h-18c-.97 0-1.75-.78-1.75-1.75s.78-1.75 1.75-1.75h18c.97 0 1.75.78 1.75 1.75s-.78 1.75-1.75 1.75zM302.5 86h-18c-.97 0-1.75-.78-1.75-1.75s.78-1.75 1.75-1.75h18c.97 0 1.75.78 1.75 1.75s-.78 1.75-1.75 1.75z" class="colorfff svgShape"></path></g></svg></g></svg>